# AST/ASF file generated using VICON BodyLanguage
# -----------------------------------------------
:version 1.10
:name VICON
:units
  mass 1.0
  length 0.45
  angle deg
:documentation
   .ast/.asf automatically generated from VICON data using
   VICON BodyBuilder and BodyLanguage model FoxedUp or BRILLIANT.MOD
:root
   order TX TY TZ RX RY RZ
   axis XYZ
   position 0 0 0  
   orientation 0 0 0 
:bonedata
  begin
     id 1 
     name lhipjoint
     direction 0.62366 -0.717238 0.310833 
     length 2.53602 
     axis 0 0 0  XYZ
  end
  begin
     id 2 
     name lfemur
     direction 0.34202 -0.939693 0  
     length 7.40817  
     axis 0 0 20  XYZ
    dof rx ry rz
    limits (-160.0 20.0)
           (-70.0 70.0)
           (-60.0 70.0)
  end
  begin
     id 3 
     name ltibia
     direction 0.34202 -0.939693 0   
     length 7.7045   
     axis 0 0 20   XYZ
    dof rx
    limits (-10.0 170.0)
  end
  begin
     id 4 
     name lfoot
     direction 0.0673888 -0.185149 0.980397   
     length 2.09456   
     axis -90 7.62852e-016 20   XYZ
    dof rx rz
    limits (-45.0 90.0)
           (-70.0 20.0)
  end
  begin
     id 5 
     name ltoes
     direction 1.53575e-011 -4.21994e-011 1   
     length 1.05543   
     axis -90 7.62852e-016 20   XYZ
    dof rx
    limits (-90.0 20.0)
  end
  begin
     id 6 
     name rhipjoint
     direction -0.489018 -0.800347 0.346851   
     length 2.27268  
     axis 0 0 0  XYZ 
  end
  begin
     id 7 
     name rfemur
     direction -0.34202 -0.939693 0   
     length 7.55487   
     axis 0 0 -20   XYZ
    dof rx ry rz
    limits (-160.0 20.0)
           (-70.0 70.0)
           (-70.0 60.0)
  end
  begin
     id 8 
     name rtibia
     direction -0.34202 -0.939693 0   
     length 7.78969   
     axis 0 0 -20   XYZ
    dof rx
    limits (-10.0 170.0)
 end
 begin
     id 9 
     name rfoot
     direction -0.0859318 -0.236096 0.967923   
     length 2.19143  
     axis -90 -7.62852e-016 -20   XYZ
    dof rx rz
    limits (-45.0 90.0)
           (-20.0 70.0)
  end
  begin
     id 10 
     name rtoes
     direction -1.53538e-011 -4.21989e-011 1   
     length 1.09845   
     axis -90 -7.62852e-016 -20   XYZ
    dof rx
    limits (-90.0 20.0)
  end
  begin
     id 11 
     name lowerback
     direction -0.00762546 0.998978 -0.0445553   
     length 1.98161   
     axis 0 0 0   XYZ
    dof rx ry rz
    limits (-20.0 45.0)
           (-30.0 30.0)
           (-30.0 30.0)
  end
  begin
     id 12 
     name upperback
     direction 0.0422361 0.998867 -0.0219156   
     length 1.97558   
     axis 0 0 0   XYZ
    dof rx ry rz
    limits (-20.0 45.0)
           (-30.0 30.0)
           (-30.0 30.0)
  end
  begin
     id 13 
     name thorax
     direction 0.0442465 0.999021 7.47603e-005   
     length 1.97799   
     axis 0 0 0   XYZ
    dof rx ry rz
    limits (-20.0 45.0)
           (-30.0 30.0)
           (-30.0 30.0)
  end
  begin
     id 14 
     name lowerneck
     direction 0.00312169 0.984641 0.174564   
     length 1.78995   
     axis 0 0 0   XYZ
    dof rx ry rz
    limits (-20.0 45.0)
           (-30.0 30.0)
           (-30.0 30.0)
  end
  begin
     id 15 
     name upperneck
     direction -0.0383028 0.985255 -0.166749   
     length 1.83053   
     axis 0 0 0   XYZ
    dof rx ry rz
    limits (-20.0 45.0)
           (-30.0 30.0)
           (-30.0 30.0)
  end
  begin
     id 16
     name head
     direction -0.0129546 0.997059 -0.0755386  
     length 1.84088  
     axis 0 0 0   XYZ
    dof rx ry rz
    limits (-20.0 45.0)
           (-30.0 30.0)
           (-30.0 30.0)
  end
  begin
     id 17 
     name lclavicle
     direction 0.912857 0.370519 -0.171488  
     length 3.51279  
     axis 0 0 0   XYZ
    dof ry rz
    limits (-20.0 10.0)
           (0.0 20.0)
  end
  begin
     id 18 
     name lhumerus
     direction 1 -4.48962e-011 3.64361e-027   
     length 4.95663   
     axis 180 -30 -90   XYZ
    dof rx ry rz
    limits (-60.0 90.0)
           (-90.0 90.0)
           (-90.0 90.0)
  end
  begin
     id 19
     name lradius
     direction 1 -4.48974e-011 5.97202e-027   
     length 3.38177   
     axis 180 -30 -90   XYZ
    dof rx
    limits (-10.0 170.0)
  end
  begin
     id 20
     name lwrist
     direction 1 -4.4896e-011 9.83288e-027   
     length 1.69088   
     axis -9.31221e-015 90 90   XYZ
    dof ry
    limits (-180.0 0.0)
 end
  begin
     id 21 
     name lhand
     direction 1 -4.4902e-011 1.96551e-026   
     length 0.662909   
     axis -1.25475e-014 90 90   XYZ
    dof rx rz
    limits (-90.0 90.0)
           (-45.0 45.0)
  end
  begin
     id 22 
     name lfingers
     direction 1 -4.48971e-011 3.93277e-026   
     length 0.534454   
     axis -2.50945e-014 90 90   XYZ
    dof rx
    limits (0.0 90.0)
  end
  begin
     id 23
     name lthumb
     direction 0.707107 -6.34933e-011 0.707107   
     length 0.767373   
     axis -90 45 -4.80359e-014   XYZ
    dof rx rz
    limits (-45.0 45.0)
           (-45.0 45.0)
  end
  begin
     id 24 
     name rclavicle
     direction -0.900919 0.395364 -0.178976   
     length 3.40627  
     axis 0 0 0   XYZ 
    dof ry rz
    limits (-10.0 20.0)
           (-20.0 0.0)
  end
  begin
     id 25 
     name rhumerus
     direction -1 -4.48969e-011 1.03875e-027  
     length 5.08365   
     axis 180 30 90   XYZ
    dof rx ry rz
    limits (-90.0 60.0)
           (-90.0 90.0)
           (-90.0 90.0)
  end
  begin
     id 26 
     name rradius
     direction -1 -4.48951e-011 5.02733e-027   
     length 3.35984   
     axis 180 30 90   XYZ
    dof rx
    limits (-10.0 170.0)
  end
  begin
     id 27 
     name rwrist
     direction -1 -4.49011e-011 9.82828e-027   
     length 1.67992   
     axis -9.31221e-015 -90 -90   XYZ
    dof ry
    limits (-180.0 0.0)
  end
  begin
     id 28
     name rhand
     direction -1 -4.48894e-011 1.96774e-026   
     length 0.820764   
     axis -1.25475e-014 -90 -90   XYZ
    dof rx rz
    limits (-90.0 90.0)
           (-45.0 45.0)
  end
  begin
     id 29
     name rfingers
     direction -1 -4.49095e-011 3.92833e-026   
     length 0.661721   
     axis -2.50945e-014 -90 -90   XYZ
    dof rx
    limits (0.0 90.0)
  end
  begin
     id 30
     name rthumb
     direction -0.707107 -6.34881e-011 0.707107   
     length 0.950103   
     axis -90 -45 4.80359e-014   XYZ
    dof rx rz
    limits (-45.0 45.0)
           (-45.0 45.0)
  end
:hierarchy
  begin
    root lhipjoint rhipjoint lowerback
    lhipjoint lfemur
    lfemur ltibia
    ltibia lfoot
    lfoot ltoes
    rhipjoint rfemur
    rfemur rtibia
    rtibia rfoot
    rfoot rtoes
    lowerback upperback
    upperback thorax
    thorax lowerneck lclavicle rclavicle
    lowerneck upperneck
    upperneck head
    lclavicle lhumerus
    lhumerus lradius
    lradius lwrist
    lwrist lhand lthumb
    lhand lfingers
    rclavicle rhumerus
    rhumerus rradius
    rradius rwrist
    rwrist rhand rthumb
    rhand rfingers
  end

#!OML:ASF I:\golf\golf\golf 2\Subject 1\2002-09-07\Subject1.ASF
:FULLY-SPECIFIED
:DEGREES
16
root -5.82686 17.8875 1.75758 -82.5078 86.2715 -100.227
lowerback 4.56007 1.51943 -1.31722
upperback 3.06671 2.1174 4.93333
thorax 0.371728 1.06158 5.76104
lowerneck -16.902 -1.72851 2.08903
upperneck 40.96 1.23311 -5.99324
head 18.2366 0.578984 -2.7636
rclavicle -1.15295e-014 -2.78299e-014
rhumerus -4.38162 -3.72551 -101.002
rradius 20.0617
rwrist -31.1654
rhand -12.9477 -5.72976
rfingers 7.12502
rthumb 13.1436 -35.2955
lclavicle -1.15295e-014 -2.78299e-014
lhumerus -10.8563 -43.0518 111.36
lradius 27.2611
lwrist 43.9983
lhand -13.3087 68.6628
lfingers 7.12502
lthumb -167.204 81.7494
rfemur -29.5986 0.0763843 12.9144
rtibia 28.5246
rfoot -11.7689 -9.54276
rtoes 24.0647
lfemur -31.3259 4.31532 -8.8254
ltibia 30.6794
lfoot -11.915 0.0656678
ltoes -17.9351
17
root -5.82571 17.8871 1.75447 -82.609 86.2718 -100.345
lowerback 4.51355 1.51458 -1.29268
upperback 3.07628 2.11128 4.93934
thorax 0.408832 1.05811 5.75517
lowerneck -16.9163 -1.72549 2.08594
upperneck 40.9437 1.24622 -6.0179
head 18.2322 0.579456 -2.77182
rclavicle 1.47101e-014 3.18055e-015
rhumerus -4.32715 -3.90389 -101.03
rradius 20.0152
rwrist -31.0043
rhand -12.8974 -5.72767
rfingers 7.12502
rthumb 13.1921 -35.2903
lclavicle 1.47101e-014 3.18055e-015
lhumerus -10.7586 -42.937 111.283
lradius 27.2074
lwrist 44.0024
lhand -13.0393 68.4681
lfingers 7.12502
lthumb -166.945 81.9605
rfemur -29.5897 0.0319794 12.9125
rtibia 28.4813
rfoot -11.6594 -9.54761
rtoes 23.5439
lfemur -31.3352 4.34526 -8.84945
ltibia 30.6553
lfoot -11.909 0.0580159
ltoes -18.6163
18
root -5.8244 17.8877 1.75278 -82.6489 86.2993 -100.375
lowerback 4.49569 1.49961 -1.32989
upperback 3.09718 2.08972 4.95155
thorax 0.441186 1.04603 5.79139
lowerneck -16.9466 -1.71625 2.06821
upperneck 40.9347 1.28183 -6.05811
head 18.2387 0.584269 -2.78109
rclavicle 1.55052e-014 1.43125e-014
rhumerus -4.2574 -4.10653 -101.069
rradius 19.9252
rwrist -30.7665
rhand -12.9275 -5.73791
rfingers 7.12502
rthumb 13.1631 -35.3024
lclavicle 1.55052e-014 1.43125e-014
lhumerus -10.6863 -42.987 111.193
lradius 27.2418
lwrist 44.3268
lhand -13.0664 68.4476
lfingers 7.12502
lthumb -166.971 81.9793
rfemur -29.5797 0.0258577 12.8833
rtibia 28.4986
rfoot -11.5822 -9.6422
rtoes 22.7888
lfemur -31.301 4.41351 -8.91031
ltibia 30.5987
lfoot -11.8835 -0.00573401
ltoes -18.6786
19
root -5.82373 17.8869 1.75381 -82.187 86.2972 -99.8933
lowerback 4.50004 1.52346 -1.37421
upperback 3.10381 2.12067 4.97492
thorax 0.439971 1.06104 5.84001
lowerneck -16.9383 -1.71967 2.03415
upperneck 40.9294 1.28988 -6.05671
head 18.2341 0.582795 -2.77207
rclavicle -1.98785e-014 -6.2816e-014
rhumerus -4.28054 -4.0769 -101.056
rradius 19.9838
rwrist -30.8437
rhand -13.1169 -5.77461
rfingers 7.12502
rthumb 12.9805 -35.3508
lclavicle -1.98785e-014 -6.2816e-014
lhumerus -10.7584 -43.3984 111.175
lradius 27.4161
lwrist 44.8041
lhand -13.0762 68.3408
lfingers 7.12502
lthumb -166.98 82.0855
rfemur -29.594 0.0932317 12.8821
rtibia 28.5661
rfoot -11.645 -9.73814
rtoes 22.5702
lfemur -31.3586 4.66072 -9.03394
ltibia 30.5515
lfoot -11.7192 0.032571
ltoes -19.3981
20
root -5.82355 17.8807 1.7534 -82.1223 86.2482 -99.8204
lowerback 4.50399 1.54677 -1.35484
upperback 3.09557 2.15426 5.01439
thorax 0.42477 1.07889 5.8687
lowerneck -16.9201 -1.73929 2.00179
upperneck 40.9409 1.27892 -6.06128
head 18.2353 0.574462 -2.77027
rclavicle 1.82882e-014 5.48646e-014
rhumerus -4.32674 -3.97838 -101.016
rradius 20.0748
rwrist -31.018
rhand -13.2186 -5.7469
rfingers 7.12502
rthumb 12.8825 -35.3293
lclavicle 1.82882e-014 5.48646e-014
lhumerus -10.8044 -43.6362 111.219
lradius 27.4993
lwrist 45.0167
lhand -13.019 68.2882
lfingers 7.12502
lthumb -166.925 82.1416
rfemur -29.6195 0.121679 12.9259
rtibia 28.6298
rfoot -11.7737 -9.71353
rtoes 23.0672
lfemur -31.5237 5.07748 -9.22434
ltibia 30.5491
lfoot -11.4886 0.198457
ltoes -21.752
21
root -5.82304 17.8751 1.75058 -82.3451 86.2391 -100.026
lowerback 4.52291 1.5401 -1.32296
upperback 3.08805 2.14711 5.01605
thorax 0.408235 1.07621 5.85182
lowerneck -16.8935 -1.73322 2.03736
upperneck 40.9335 1.29526 -6.10579
head 18.2255 0.581192 -2.79379
rclavicle -2.78299e-014 -5.56597e-015
rhumerus -4.37332 -3.8574 -101.044
rradius 20.1402
rwrist -31.1909
rhand -13.2892 -5.74504
rfingers 7.12502
rthumb 12.8144 -35.3317
lclavicle -2.78299e-014 -5.56597e-015
lhumerus -10.791 -43.5395 111.204
lradius 27.4888
lwrist 44.8873
lhand -13.0265 68.5053
lfingers 7.12502
lthumb -166.932 81.924
rfemur -29.6249 0.112895 12.918
rtibia 28.6872
rfoot -11.8626 -9.62952
rtoes 23.699
lfemur -31.4705 5.17764 -9.2739
ltibia 30.574
lfoot -11.5831 0.238296
ltoes -22.9427
22
root -5.82138 17.8769 1.74765 -82.2352 86.2789 -99.8689
lowerback 4.55339 1.53068 -1.33581
upperback 3.10544 2.1336 4.99693
thorax 0.410949 1.06896 5.83914
lowerneck -16.8799 -1.695 2.07934
upperneck 40.8912 1.35121 -6.14978
head 18.2015 0.602674 -2.80951
rclavicle 1.03368e-014 5.56597e-015
rhumerus -4.40504 -3.70206 -101.074
rradius 20.2019
rwrist -31.3861
rhand -13.4201 -5.78694
rfingers 7.12502
rthumb 12.6882 -35.3815
lclavicle 1.03368e-014 5.56597e-015
lhumerus -10.7692 -43.448 111.137
lradius 27.5131
lwrist 44.8047
lhand -13.1201 68.6333
lfingers 7.12502
lthumb -167.023 81.7903
rfemur -29.5907 0.13333 12.8564
rtibia 28.7405
rfoot -11.8439 -9.59506
rtoes 23.6715
lfemur -31.1991 4.97465 -9.17242
ltibia 30.5982
lfoot -11.9185 0.0534151
ltoes -21.9186
23
root -5.82015 17.8786 1.74457 -81.9891 86.3303 -99.5737
lowerback 4.5496 1.52507 -1.45501
upperback 3.15794 2.12335 5.06718
thorax 0.462299 1.06112 5.9836
lowerneck -16.9257 -1.67682 1.95
upperneck 40.8692 1.42998 -6.16362
head 18.2082 0.610293 -2.77708
rclavicle 1.59028e-015 1.90833e-014
rhumerus -4.34715 -3.59034 -100.961
rradius 20.191
rwrist -31.433
rhand -13.4121 -5.85407
rfingers 7.12502
rthumb 12.696 -35.4481
lclavicle 1.59028e-015 1.90833e-014
lhumerus -10.6444 -43.2877 111.141
lradius 27.5234
lwrist 44.7901
lhand -13.1577 68.6582
lfingers 7.12502
lthumb -167.059 81.7631
rfemur -29.5543 0.127719 12.7931
rtibia 28.7699
rfoot -11.778 -9.58553
rtoes 23.3069
lfemur -31.0311 4.83604 -9.15198
ltibia 30.5944
lfoot -12.0651 0.0138326
ltoes -21.2546
24
root -5.81953 17.8763 1.74134 -81.3319 86.3475 -98.8889
lowerback 4.53508 1.54468 -1.53288
upperback 3.1944 2.14879 5.14525
thorax 0.500023 1.0722 6.111
lowerneck -16.965 -1.69546 1.7849
upperneck 40.878 1.45481 -6.13888
head 18.2265 0.597706 -2.73126
rclavicle 1.78906e-014 -3.73715e-014
rhumerus -4.31072 -3.44492 -100.832
rradius 20.2212
rwrist -31.5498
rhand -13.4368 -5.9931
rfingers 7.12502
rthumb 12.6721 -35.5887
lclavicle 1.78906e-014 -3.73715e-014
lhumerus -10.587 -43.3865 111.185
lradius 27.6278
lwrist 44.9763
lhand -13.0849 68.7994
lfingers 7.12502
lthumb -166.989 81.6264
rfemur -29.5383 0.0889136 12.7792
rtibia 28.7672
rfoot -11.7675 -9.51043
rtoes 23.5201
lfemur -31.0623 4.93864 -9.25666
ltibia 30.5484
lfoot -11.9144 0.169603
ltoes -21.9063
25
root -5.81803 17.8753 1.73896 -80.5569 86.3173 -98.0948
lowerback 4.56063 1.58309 -1.40777
upperback 3.18217 2.20339 5.08583
thorax 0.472945 1.10189 5.97253
lowerneck -16.9676 -1.71897 1.79857
upperneck 40.9019 1.38186 -6.06019
head 18.2343 0.582185 -2.71161
rclavicle -6.75868e-015 -1.11319e-014
rhumerus -4.34903 -3.41407 -100.903
rradius 20.3158
rwrist -31.7451
rhand -13.5789 -6.18127
rfingers 7.12502
rthumb 12.5352 -35.7853
lclavicle -6.75868e-015 -1.11319e-014
lhumerus -10.6956 -43.7447 111.137
lradius 27.7614
lwrist 45.2037
lhand -12.9986 68.9847
lfingers 7.12502
lthumb -166.905 81.4464
rfemur -29.5246 0.070718 12.8195
rtibia 28.7476
rfoot -11.8443 -9.37455
rtoes 24.8317
lfemur -31.202 5.14717 -9.3633
ltibia 30.4866
lfoot -11.6057 0.300381
ltoes -22.8014
26
root -5.8171 17.8774 1.73628 -80.2953 86.2849 -97.842
lowerback 4.56412 1.60059 -1.26585
upperback 3.16096 2.22986 5.00837
thorax 0.453622 1.1174 5.80736
lowerneck -16.9783 -1.73229 1.86976
upperneck 40.931 1.3084 -5.99594
head 18.2474 0.573199 -2.70993
rclavicle 3.26007e-014 8.26944e-014
rhumerus -4.36379 -3.55731 -101.03
rradius 20.3445
rwrist -31.7398
rhand -13.498 -6.28181
rfingers 7.12502
rthumb 12.6132 -35.881
lclavicle 3.26007e-014 8.26944e-014
lhumerus -10.794 -43.9604 111.052
lradius 27.8421
lwrist 45.2845
lhand -12.9733 69.0879
lfingers 7.12502
lthumb -166.881 81.3448
rfemur -29.5295 0.0834692 12.8585
rtibia 28.7164
rfoot -11.848 -9.37802
rtoes 25.1268
lfemur -31.2601 5.09487 -9.30901
ltibia 30.4492
lfoot -11.4431 0.264185
ltoes -21.7169
27
root -5.81654 17.881 1.73267 -80.0103 86.2871 -97.5744
lowerback 4.5413 1.59012 -1.24741
upperback 3.15195 2.21606 5.00361
thorax 0.459351 1.1106 5.79293
lowerneck -16.9746 -1.71149 1.8989
upperneck 40.9366 1.34134 -6.02014
head 18.2526 0.587874 -2.72052
rclavicle -1.98785e-015 6.36111e-015
rhumerus -4.39827 -3.50652 -101.067
rradius 20.3579
rwrist -31.7055
rhand -13.3715 -6.24728
rfingers 7.12502
rthumb 12.7351 -35.8389
lclavicle -1.98785e-015 6.36111e-015
lhumerus -10.7707 -43.8254 111.012
lradius 27.815
lwrist 45.2115
lhand -12.92 68.9816
lfingers 7.12502
lthumb -166.83 81.4544
rfemur -29.5354 0.0963716 12.8517
rtibia 28.6948
rfoot -11.7195 -9.44206
rtoes 24.1975
lfemur -31.1181 4.83398 -9.15117
ltibia 30.4296
lfoot -11.5671 0.0917115
ltoes -19.1662
